<svg xmlns="http://www.w3.org/2000/svg" xmlns:xlink="http://www.w3.org/1999/xlink" version="1.1" id="Layer_1" x="0px" y="0px" viewBox="0 0 313.6 115.6" style="enable-background:new 0 0 313.6 115.6;" xml:space="preserve">
  <style type="text/css">
    .st0{fill:#FFFFFF;}
  </style>
  <path class="st0" d="M300,93.9c0,3.7,3.1,6.8,6.8,6.8c3.8,0,6.9-3.1,6.9-6.8s-3.1-6.8-6.9-6.8S300,90.2,300,93.9 M269.9,81.8  c0-6.6,4-10.3,9.1-10.3s9,3.6,9,10.2s-3.9,10.5-9,10.5C273.8,92.2,269.9,88.3,269.9,81.8 M297.6,46.2h-9.8v20.9  c-1-1.9-4-4.5-10.4-4.5c-10.4,0-17.6,8.4-17.6,19.1c0,11.1,7.4,19.3,17.9,19.3c4.9,0,8.6-2.2,10.3-5.1c0,1.7,0.2,3.5,0.4,4.2h9.5  c-0.1-1.5-0.3-4.2-0.3-6.6V46.2z M249.4,87.2c-1.2,3.3-3.7,5.6-8.3,5.6c-4.9,0-9-3.5-9.2-8.3h26.2c0-0.1,0.1-1.6,0.1-3.1  c0-11.8-6.8-19-18.1-19c-9.4,0-18,7.6-18,19.3c0,12.4,8.9,19.6,18.9,19.6c9,0,14.8-5.3,16.7-11.6L249.4,87.2z M232.1,77.7  c0.2-3.4,3.1-7.2,8.2-7.2c5.7,0,8,3.6,8.2,7.2H232.1z M214.7,52.6h-8.9v5.1c0,3.3-1.8,5.8-5.7,5.8h-1.9v8.8h6.6v17.1  c0,7.1,4.5,11.3,11.6,11.3c2.9,0,4.7-0.5,5.6-0.9v-8.2c-0.5,0.1-1.9,0.3-3.1,0.3c-2.8,0-4.3-1-4.3-4.2V72.3h7.4v-8.8h-7.4  L214.7,52.6L214.7,52.6z M196.3,63.4c-0.7-0.1-1.5-0.1-2.3-0.1c-3.1,0-8.2,0.9-10.4,5.7v-5.4H174v36.7h9.9V83.4  c0-7.9,4.4-10.4,9.5-10.4c0.9,0,1.9,0.1,3,0.3L196.3,63.4L196.3,63.4z M152.8,62.4c-11,0-19.2,8.1-19.2,19.4  c0,11.2,8.3,19.4,19.2,19.4S172,93,172,81.8C172.1,70.5,163.8,62.4,152.8,62.4 M152.8,92.3c-4.8,0-9.3-3.6-9.3-10.4  c0-6.9,4.5-10.4,9.3-10.4s9.3,3.5,9.3,10.4S157.7,92.3,152.8,92.3 M130.9,59.9c-1.2-6-6.1-13.7-18.9-13.7c-10,0-18.4,7.2-18.4,16.5  c0,8,5.4,13.4,13.9,15.1l7.4,1.5c4.1,0.8,6.4,3.2,6.4,6.3c0,3.7-3.1,6.5-8.6,6.5c-7.4,0-11.1-4.7-11.5-9.9l-9.5,2.5  c0.8,7.5,7,16.5,21,16.5c12.3,0,19.1-8.2,19.1-16.3c0-7.4-5.1-13.7-14.7-15.6l-7.4-1.4c-3.9-0.7-5.7-3.1-5.7-6  c0-3.5,3.3-6.7,8.3-6.7c6.7,0,9.1,4.5,9.6,7.4L130.9,59.9z M66.9,69.9L56.2,23.7c0.1-0.1,0.1-0.1,0.2-0.2l0,0  c0.9-1.1,2.2-1.8,3.6-1.9c2.7-0.1,5,2,5.1,4.7L66.9,69.9z M48,7.5c-0.9-3.4-4.3-5.6-7.8-4.7c-1.9,0.5-3.4,1.7-4.2,3.4l0,0  c0,0,0,0,0,0.1l0,0c-0.8,1.4-1.2,3.3-1.5,5.2l24.2,38.9L48,7.5z M54,51.5L22.8,3.4C20.6,0,16.3-1,13.2,1c-1.8,1.1-2.8,3-3,4.9l0,0V6  l0,0C8.7,15.4,20,32.3,20,32.3l8.5,13c1.5-0.2,3-0.3,4.5-0.3c4.6,0,8.9,0.8,13,2.3l-0.9,4.3c-3.7-1.5-7.8-2.3-12.1-2.3  C15.5,49.5,1.2,63,0,80.2h15.4c1.1-8.8,8.5-15.6,17.6-15.6c9.8,0,17.7,7.9,17.7,17.7s-8,17.7-17.8,17.7c-8.9,0-16.3-6.6-17.5-15.2H0  c1.2,17.2,15.5,30.7,33,30.7c18.3,0,33.1-14.8,33.1-33.1c0-5.1-1.3-10-3.3-14.4C58.1,58,54,51.5,54,51.5z"/>
</svg>